<?xml version="1.0" encoding="UTF-8"?>
<svg id="Layer_2" data-name="Layer 2" xmlns="http://www.w3.org/2000/svg" viewBox="0 0 38.27 98.71">
  <defs>
    <style>
      .cls-1 {
        fill: #4f5487;
      }
    </style>
  </defs>
  <g id="Layer_1-2" data-name="Layer 1">
    <path class="cls-1" d="m8.15,97.45c-.62.77-1.2,1.33-1.3,1.25-.34-.3-3.96-21.22-4.04-23.34-.12-2.98.87-6.03,3.79-11.68,1.34-2.61,2.5-5.03,2.56-5.38.28-1.46-1.06-1.52-6.13-.27l-3.03.75.99-1.65c.54-.9,1.59-2.5,2.34-3.55l1.35-1.92,2.45-1c1.35-.55,2.94-1.38,3.54-1.84,1.69-1.3,1.93-3.14,1.3-10.09-.8-8.88-.89-13.35-.32-15.85.87-3.83,2-5.96,9.98-18.71Q24.45-.34,24.92.3c.53.73,1.49,5.05,1.69,7.62.07.94-.15,2.71-.5,3.93-.35,1.22-.71,2.85-.81,3.61-.11.8-.63,2.02-1.22,2.86-.89,1.28-1,1.67-.8,2.95.72,4.63,1.17,9.51,1.56,17.23.41,8.18.48,8.67,1.12,8.75,1.19.15,3.8-.85,6.65-2.55l2.75-1.64,1.05,1.39c.81,1.08,1.05,1.62,1.08,2.4.01.56.21,1.35.44,1.76.5.91.4,5.8-.15,7.09-1.08,2.54-4.01,6.51-4.64,6.29-.08-.03-1.58-1.04-3.33-2.25-2.99-2.06-5.03-3.07-5.6-2.76-.22.12-.96,1.58-2.79,5.53-.83,1.79-5.16,10.2-7.13,13.85-1.13,2.09-1.42,2.95-1.25,3.58.61,2.15.37,5.64-.61,9.08-1,3.5-2.17,5.8-4.3,8.44h0Z"/>
  </g>
</svg>