<?xml version="1.0" encoding="UTF-8"?>
<svg id="Layer_2" data-name="Layer 2" xmlns="http://www.w3.org/2000/svg" viewBox="0 0 53.29 50.5">
  <defs>
    <style>
      .cls-1 {
        fill: #5f699e;
      }
    </style>
  </defs>
  <g id="Layer_1-2" data-name="Layer 1">
    <path class="cls-1" d="m53.29,50.31c-2.11-6.67-2.19-7.23-3.15-14.02-.32-2.29.09-3.98-.87-5.77-3.02-4.19-4.93-4.71-7.29-9.61-.16-.33.7-1.44,1.72-2.23.32-.25,1.42-1.44,2.63-2.44,1.9-1.59,3.23-2.43,4.68-3.5.35-.26.86-1.12-2.2-.41-.35.06-.92.21-1.43.06-1.62-.46-2.51-.32-5.27.86-3.43,1.47-4.28,1.49-6.34.22-4.62-3.18-4.34-3.49-6.41-8.71-1.33-4.23-5.61-3.39-9.46-4.14C11.94-.1,10.61-.44,2.77.98c-1.05.2-2.12.4-2.39.44-.68.11-.39.62.41.72.34.05.67.2.74.35s.56.35,1.08.45c.52.1,1.41.33,1.96.52,6.15,2.1,12,5.62,15.18,6.18,2.36,5.9,2.55,5.03,4.84,10.76,0,0-.03.14-.74.64-4.88,3.48-6.31,2.51-10.29,3.81-2.7,1.37,4.08,10.44,6.59,7.05,2.48-2.08,3.68-3.03,6.48-5.11,2.09-.56,2.48-.6,2.78-.31l12.09,7.69c1.76,5.62,4.26,9.13,8,13.28,1.55,1.88,3.89,3.64,3.77,2.85h0Z"/>
  </g>
</svg>