<?xml version="1.0" encoding="UTF-8"?><svg id="Layer_2" xmlns="http://www.w3.org/2000/svg" viewBox="0 0 338.58 141.79"><defs><style>.cls-1{fill:#9198e1;}.cls-2{fill:none;opacity:.47;stroke:#fff;stroke-miterlimit:10;}</style></defs><g id="Layer_1-2"><path class="cls-1" d="m8.2,63.38c-2.42-13.21.96-22.41,18.62-22.24,13.29.12,26.02-6.06,33.62-16.96,5.67-8.13,20.05-21.45,27.21-9.84,8.56,13.9,16.63,12.19,22.67-1.28,8.53-19.01,51.79-15.05,74.06,2.59,7.54,5.97,17.49,7.9,26.79,5.43,10.71-2.84,25.55-8.4,33.46-1.74,4.23,3.56,10.07,4.47,15.37,2.9,15.97-4.75,43.3-9.63,41.62,13.3l-1.34,18.26c-.56,7.62,4.93,14.34,12.5,15.35,15.08,2.02,35.4,6.74,19.54,16.78l-16.51,10.45c-4.14,2.62-7.49,6.3-9.81,10.62-4.08,7.61-12.98,18.9-28.05,12.68-7.26-3-15.56-2.03-21.88,2.63-11.59,8.54-30.66,17.83-48.31,4.75-3.66-2.71-8.74-2.45-12.04.68-10.06,9.53-31.06,24.28-47.45,1.38-4.72-6.59-13.81-8.12-20.36-3.36-11.67,8.5-31.46,15.98-58.58,1.89C22.89,103.54-9.15,122.37,3.14,97.9c5.36-10.68,7.21-22.77,5.06-34.52Z"/><path class="cls-2" d="m8.2,63.38c-2.42-13.21.96-22.41,18.62-22.24,13.29.12,26.02-6.06,33.62-16.96,5.67-8.13,20.05-21.45,27.21-9.84,8.56,13.9,16.63,12.19,22.67-1.28,8.53-19.01,51.79-15.05,74.06,2.59,7.54,5.97,17.49,7.9,26.79,5.43,10.71-2.84,25.55-8.4,33.46-1.74,4.23,3.56,10.07,4.47,15.37,2.9,15.97-4.75,43.3-9.63,41.62,13.3l-1.34,18.26c-.56,7.62,4.93,14.34,12.5,15.35,15.08,2.02,35.4,6.74,19.54,16.78l-16.51,10.45c-4.14,2.62-7.49,6.3-9.81,10.62-4.08,7.61-12.98,18.9-28.05,12.68-7.26-3-15.56-2.03-21.88,2.63-11.59,8.54-30.66,17.83-48.31,4.75-3.66-2.71-8.74-2.45-12.04.68-10.06,9.53-31.06,24.28-47.45,1.38-4.72-6.59-13.81-8.12-20.36-3.36-11.67,8.5-31.46,15.98-58.58,1.89C22.89,103.54-9.15,122.37,3.14,97.9c5.36-10.68,7.21-22.77,5.06-34.52Z"/></g></svg>