<svg width="69" height="57" viewBox="0 0 69 57" fill="none" xmlns="http://www.w3.org/2000/svg">
<path d="M13.7361 10.3097C12.9506 9.87733 12.0007 9.89896 11.2348 10.3666C10.469 10.8342 10 11.679 10 12.5909V45.4091C10 46.84 11.1347 48 12.5345 48C13.9342 48 15.069 46.84 15.069 45.4091V16.9286L33.2983 26.9629C34.0485 27.3761 34.9515 27.3761 35.7017 26.9629L53.931 16.9286V45.4091C53.931 46.84 55.0658 48 56.4655 48C57.8652 48 59 46.84 59 45.4091V12.5909C59 11.679 58.531 10.8342 57.7652 10.3666C56.9994 9.89896 56.0495 9.87733 55.2638 10.3097L34.5 21.7393L13.7361 10.3097Z" fill="#717ADD"/>
<path fill-rule="evenodd" clip-rule="evenodd" d="M52.15 0.793035C40.4069 -0.264345 28.5934 -0.264345 16.8501 0.793035L11.8071 1.24712C6.39768 1.73421 2.02699 5.89592 1.24134 11.3077C-0.413781 22.7088 -0.413781 34.2914 1.24134 45.6922C2.02699 51.104 6.39768 55.2656 11.8071 55.7529L16.8501 56.2068C28.5934 57.2644 40.4069 57.2644 52.15 56.2068L57.1928 55.7529C62.6025 55.2656 66.973 51.104 67.7587 45.6922C69.4138 34.2914 69.4138 22.7088 67.7587 11.3077C66.973 5.89592 62.6025 1.73421 57.1928 1.24712L52.15 0.793035ZM17.294 5.79357C28.7419 4.7628 40.258 4.7628 51.706 5.79357L56.7491 6.24765C59.8603 6.5278 62.3739 8.92139 62.8259 12.034C64.4112 22.9531 64.4112 34.0467 62.8259 44.9659C62.3739 48.0786 59.8603 50.472 56.7491 50.7522L51.706 51.2064C40.258 52.2372 28.7419 52.2372 17.294 51.2064L12.2511 50.7522C9.13987 50.472 6.62608 48.0786 6.17421 44.9659C4.58901 34.0467 4.58901 22.9531 6.17421 12.034C6.62608 8.92139 9.13987 6.5278 12.2511 6.24765L17.294 5.79357Z" fill="#717ADD"/>
</svg>
