<?xml version="1.0" encoding="UTF-8"?>
<svg id="Layer_2" data-name="Layer 2" xmlns="http://www.w3.org/2000/svg" viewBox="0 0 133.15 728.35">
  <defs>
    <style>
      .cls-1, .cls-2 {
        fill: #f4f4f4;
      }

      .cls-3 {
        fill: #fafbfc;
      }

      .cls-4 {
        fill: #212121;
      }

      .cls-5 {
        fill: #191919;
      }

      .cls-6 {
        fill: #2d2d2d;
      }

      .cls-7 {
        fill: #383838;
      }

      .cls-2 {
        stroke: #383838;
      }

      .cls-2, .cls-8, .cls-9, .cls-10, .cls-11, .cls-12 {
        stroke-miterlimit: 10;
        stroke-width: .5px;
      }

      .cls-8 {
        fill: #939393;
      }

      .cls-8, .cls-9, .cls-11 {
        stroke: #474747;
      }

      .cls-9 {
        fill: #cfcfcf;
      }

      .cls-10 {
        stroke: #212121;
      }

      .cls-10, .cls-11, .cls-12 {
        fill: none;
      }

      .cls-12 {
        stroke: #2d2d2d;
      }
    </style>
  </defs>
  <g id="Layer_1-2" data-name="Layer 1">
    <g>
      <g>
        <path class="cls-4" d="m49.56,3.28c4.67,22.69,1.29,45.75-2.3,68.33s-6.08,44.02-7.38,66.26c-2.68,45.93-1.4,91.99-3.68,137.93-1.15,23.16-3.49,46.14-7.03,69.05s-6.86,44.28-6.94,66.79c-.16,45.31,8.73,90.8-.71,135.73-2.31,11.02-5.32,21.89-7.3,32.97-1.88,10.51-2.47,21.09-2.11,31.76.73,21.9,4.8,43.68,3.71,65.63-.29,5.73-.95,11.42-2.04,17.05-.09.44,1.36.2,1.44-.22,4.12-21.25,1.44-42.81-.43-64.15-.96-10.92-1.72-21.9-1.16-32.86.59-11.62,2.98-22.96,5.63-34.26s5.18-21.93,6.54-33.14,1.72-21.6,1.65-32.42c-.15-22.66-2.44-45.23-3.37-67.86-.96-23.33.6-46.19,4.07-69.27s6.86-45.32,8.5-68.27c3.25-45.48,2.08-91.12,3.83-136.66.9-23.35,2.58-46.7,5.98-69.83,3.22-21.86,7.88-43.81,6.73-66.03-.29-5.71-1.02-11.36-2.17-16.96-.08-.4-1.54-.05-1.45.39h0Z"/>
        <path class="cls-4" d="m59.81,3.5c-5.96,90.74-12.52,181.46-17.39,272.27-4.87,90.95-7.2,182.05-10.35,273.08-1.77,51.1-3.53,102.19-5.3,153.29,0,.16,1.44,0,1.45-.39,3.15-91.04,6.29-182.09,9.44-273.13,1.57-45.53,3.06-91.07,5.34-136.57,2.28-45.38,5.23-90.72,8.21-136.06,3.35-50.96,6.7-101.92,10.05-152.88,0-.15-1.42,0-1.45.39h0Z"/>
        <path class="cls-4" d="m8.08,688.51c.86,1.9,2.27,3.88,4.63,3.14,2.88-.89,6.09-.5,9.09-.49,3.3.01,6.6.02,9.9.04,1.48,0,2.97,0,4.45.02,1.18.01,1.28.7,1.39,1.64s.2,1.8.3,2.7c.29,2.65.64,6.18-2.42,7.35-2.59.99-5.95.53-8.65.46-1.59-.04-3.19-.08-4.79-.19s-2.54-.74-3.88-1.37c-1.26-.59-2.67-.7-4.03-.84-1.64-.17-3.28-.34-4.92-.5-.82-.08-2.45.03-3.04-.65-.46-.53-.64-1.52-.84-2.19-.28-.95-1.02-2.65.22-3.21.57-.26,1.42-.03,2.04-.12,3.17-.44,3.04-3.62,2.22-5.98-.22-.64-1.67-.24-1.45.39.32.92.73,1.95.56,2.94-.19,1.15-.81,1.58-1.98,1.67s-2.47.04-3.23,1.09c-.67.91-.23,2.19.04,3.18.31,1.13.64,2.89,1.83,3.44s2.82.42,4.09.55c1.9.19,3.84.3,5.73.61,1.64.27,2.79,1.35,4.35,1.76,1.47.39,3.1.32,4.61.38,3.12.12,6.44.4,9.54-.03,2.38-.33,4.6-1.46,5.35-3.9.36-1.17.34-2.41.25-3.62-.12-1.65-.22-3.43-.55-5.05-.19-.9-.68-1.41-1.61-1.52-1.77-.2-3.68-.02-5.46-.03-4.12-.01-8.25-.03-12.37-.04-1.79,0-3.69-.19-5.46.1-.67.11-1.65.66-2.33.49-1.13-.29-1.72-1.66-2.15-2.6-.28-.62-1.71-.2-1.45.39h0Z"/>
        <path class="cls-4" d="m36.53,692.74c-.92.75-1.85,1.54-2.95,2.02-1.34.58-2.7.43-4.07.09-1.99-.5-3.91-1.11-5.95-1.42-4.22-.65-8.58-.72-12.57-2.41-.45-.19-1.77.46-1.15.72,4.77,2.02,9.98,1.81,14.97,2.89,2.3.5,4.56,1.55,6.96,1.38s4.18-1.57,5.93-3c.65-.53-.79-.58-1.17-.27h0Z"/>
        <path class="cls-4" d="m38.43,697.15c-2.83.62-5.67,1.25-8.57,1.45-3.05.21-6.08-.15-9.07-.73-1.27-.25-2.73-.4-3.92-.9-.58-.25-1.04-.69-1.62-.94-.42-.18-.87-.32-1.31-.46-1.26-.39-2.55-.66-3.87-.8s-2.65-.02-3.82-.67c-.41-.23-1.74.37-1.15.7,1.06.59,2.19.62,3.37.7,1.53.11,3.05.38,4.51.84,1.17.37,2.09,1.18,3.25,1.51,1.5.44,3.09.71,4.63.99,2.83.51,5.69.77,8.56.58,3.11-.21,6.16-.88,9.2-1.55.88-.19.68-.91-.19-.72h0Z"/>
        <path class="cls-4" d="m38.36,700.15c-2.76-.65-5.18.81-7.79,1.41-3.05.71-6.18.11-9.17-.57s-5.68-1.29-8.62-1.57-6.22-.73-7.45-3.67c-.28-.67-1.72-.26-1.45.39.94,2.26,3.08,3.45,5.38,3.96,1.61.36,3.27.4,4.9.6s3.31.58,4.95.96c2.99.69,6.02,1.46,9.12,1.3,1.57-.08,3.05-.45,4.54-.95,1.68-.57,3.32-1.2,5.11-.78.74.17,1.44-.87.49-1.1h0Z"/>
        <path class="cls-9" d="m29.7,669.79s-7.15-2.66-4.66-7.98,6.32-4.99,8.65-3.82,2.66,3.11,2.33,5.55-.5,4.43-1.33,6.26-.67,2.55.83,2.61,4.2.22,8.5.89,12.45-2.66,12.45-2.66c0,0,5.31-2,4.07.83s-8.85,4.73-8.85,4.73c0,0-8.03.59-9.85,1.59s-4.49,2.16-5.49,4.99-1.5,5.32-2.99,8.15-.5,2.49-2.83,7.48-6.56,4.66-6.44,7.15,1.29,6.65,1.45,9.31.33,4.32.33,4.32h-4.99s-2.83-12.47-1.83-14.63,5.03-7.65,5.03-7.65c0,0-1.3,3.82-5.25,3.16s-9.26-2.16-9.26-.17-1.16,6.82,0,11.31c0,0-4.66.33-5.49,0,0,0,.67-4.16,0-12.3s13.3-5.17,13.3-5.17h2.33s-.83-3.69,2.16-5.49c0,0,.76-2.8,2.21-5.3s1.45-3.49,1.45-3.49c0,0-2.16,2.83-6.82,3.99s-9.14.33-9.14.33c0,0-2.88,2.33-3.94,1.33s-1.52-2.11,0-3.66,7.06-.83,7.06-.83c0,0,5.68.33,7.68-1.5s2.75-3.1,3.7-6.7c0,0,1.14-.39,2.78,0s2.66-.28,2.83-2.61Z"/>
        <path class="cls-6" d="m29.7,669.79s-2.83-1-2.33-2.83,1.5-2.33,2.33-1.33-.92-2.22,2.7-2.16l3.62.06s1.38-4.91-2.33-5.55-6.15-1.34-7.65,2.07-3.06,5.57-.87,6.24,2.53,2.5,4.52,3.49Z"/>
        <path class="cls-12" d="m19.72,693.72s2.99-2.31,6.15-1.65,6.05.76,6.05.76"/>
        <path class="cls-6" d="m5.64,711.34s1.72,2.02,0,3.35-6.87,3.82-5.38,5.65,4.43,1.33,5.38,0,3.29-1.61,3.44-6.32.5-2.83.5-2.83l-3.94.15Z"/>
        <path class="cls-6" d="m25.87,719.17l-.05,4.59s-.75,1.9-3.26,3.89-5.11-.79-4.17-2.33c.6-.98,3.52-.31,3.44-3.8-.05-2.54.73-2.36.73-2.36h3.31Z"/>
        <path class="cls-1" d="m28.33,672.4s12.55.35,7.19,0c-3.02-.2-.83-2.61-.83-2.61l1.33-6.26-3.62-.06c-3.62-.06-2.7,2.16-2.7,2.16,0,0-1.66-1.83-2.33,1.33s2.33,2.83,2.33,2.83l-1.37,2.61Z"/>
        <path class="cls-3" d="m53.35,671.74s1.19,3.57,1.8,3.33,6.67-2.29,5.58-5.28-7.38,1.95-7.38,1.95Z"/>
        <path class="cls-1" d="m10.24,680.44l-.66,3.32s-3.01,3.5-3.94,1.33-2.49-4.55,4.6-4.65Z"/>
        <path class="cls-11" d="m29.7,669.79s-7.15-2.66-4.66-7.98,6.32-4.99,8.65-3.82,2.66,3.11,2.33,5.55-.5,4.43-1.33,6.26-.67,2.55.83,2.61,4.2.22,8.5.89,12.45-2.66,12.45-2.66c0,0,5.31-2,4.07.83s-8.85,4.73-8.85,4.73c0,0-8.03.59-9.85,1.59s-4.49,2.16-5.49,4.99-1.5,5.32-2.99,8.15-.5,2.49-2.83,7.48-6.56,4.66-6.44,7.15,1.29,6.65,1.45,9.31.33,4.32.33,4.32h-4.99s-2.83-12.47-1.83-14.63,5.03-7.65,5.03-7.65c0,0-1.3,3.82-5.25,3.16s-9.26-2.16-9.26-.17-1.16,6.82,0,11.31c0,0-4.66.33-5.49,0,0,0,.67-4.16,0-12.3s13.3-5.17,13.3-5.17h2.33s-.83-3.69,2.16-5.49c0,0,.76-2.8,2.21-5.3s1.45-3.49,1.45-3.49c0,0-2.16,2.83-6.82,3.99s-9.14.33-9.14.33c0,0-2.88,2.33-3.94,1.33s-1.52-2.11,0-3.66,7.06-.83,7.06-.83c0,0,5.68.33,7.68-1.5s2.75-3.1,3.7-6.7c0,0,1.14-.39,2.78,0s2.66-.28,2.83-2.61Z"/>
        <path class="cls-11" d="m29,671.96s2.3,2.16,5.16,0"/>
        <line class="cls-10" x1="10.24" y1="680.44" x2="9.58" y2="683.76"/>
        <line class="cls-10" x1="53.35" y1="671.74" x2="55.15" y2="675.07"/>
        <path class="cls-4" d="m43.29,1.96c-5.68,45.47-12.22,90.95-16.01,136.63-1.89,22.79-2.93,45.68-2.31,68.55.6,22.51,3.08,45.14-.08,67.57-3.07,21.79-9.92,42.75-11.86,64.75-1.99,22.53-.81,45.17.2,67.72,1.02,22.72,1.56,45.36-.57,68.04-2.12,22.53-5.92,44.85-8.27,67.35-4.66,44.54-4.36,89.61.83,134.08.65,5.55,1.38,11.09,2.17,16.62.09.6,1.54.25,1.45-.39-6.45-44.92-7.96-90.52-4.35-135.76,1.8-22.51,5.31-44.79,8.02-67.19s3.6-44.8,2.82-67.41c-.77-22.39-2.43-44.77-1.76-67.18.34-11.36,1.29-22.71,3.24-33.91s4.62-21.35,6.87-32.04,3.81-21.68,4.15-32.74c.33-10.77-.18-21.54-.69-32.3-1.1-23.01-1.06-45.94.37-68.94,2.84-45.67,9.44-91.09,15.11-136.47l2.14-17.1c.08-.68-1.39-.46-1.46.14h0Z"/>
        <path class="cls-4" d="m64.57,2.09c-1.17,41.02-.78,82.1-4.18,123.03-.91,10.99-2.07,21.95-3.52,32.88-1.47,11.13-3.41,22.17-4.25,33.37-1.69,22.6-1.68,45.34-2.89,67.97-2.45,45.96-4.53,91.95-6.26,137.95s-3.13,93.33-4.14,140.01-1.64,92.91-1.9,139.37c-.03,5.75-.06,11.5-.08,17.25,0,.37,1.45.12,1.45-.39.18-46.46.72-92.92,1.63-139.37.91-46.45,2.19-92.9,3.84-139.33,1.66-46.86,3.7-93.71,6.11-140.54,1.17-22.63,2.05-45.24,2.87-67.88.83-22.94,5.02-45.38,7.34-68.18,4.12-40.34,4.19-80.86,5.04-121.35.11-5.06.23-10.12.37-15.18.01-.36-1.43-.12-1.45.39h0Z"/>
      </g>
      <g>
        <g>
          <path class="cls-4" d="m104.08,3.48c-2.72,21.82-5.44,43.66-6.93,65.62-1.46,21.51-1.26,43.01-.41,64.54.89,22.43,1.96,44.83,1.93,67.28s-.72,44.52-1.43,66.77c-.7,22.13-1.39,44.27-3.15,66.34-1.74,21.91-4.86,43.67-7.17,65.52-4.63,43.69-3.94,87.68-4.08,131.55-.08,24.82-.16,49.64-.23,74.46-.04,12.41-.08,24.82-.12,37.23-.03,10.02-.97,20.89,4.26,29.89.26.45,1.67-.02,1.34-.59-5.35-9.2-4.18-20.58-4.14-30.8.03-11.08.07-22.16.1-33.24.07-22.16.14-44.32.21-66.48.14-43.42-.89-87.09,2.95-130.39,1.9-21.43,5-42.73,7.14-64.13,2.2-22.02,3.16-44.13,3.9-66.24,1.46-43.53,2.53-86.96.65-130.5-1.06-24.5-2.09-48.98-.79-73.49s4.36-49.07,7.41-73.51c.08-.62-1.39-.37-1.45.16h0Z"/>
          <path class="cls-4" d="m110.77.75c6.15,19.43,3.8,39.63.19,59.3-1.79,9.76-3.85,19.47-5.2,29.3-1.39,10.14-1.72,20.34-1.33,30.56.81,21.32,4.03,42.46,4.78,63.8.76,21.81-.06,43.64-1.15,65.42-2.16,43.39-4.83,86.76-7.9,130.1-1.52,21.56-3.15,43.12-4.89,64.67-1.75,21.68-4.21,43.4-4.83,65.16s2.4,41.71,4.16,62.62.81,43.85-1,65.74c-.44,5.33-.92,10.65-1.4,15.98-.07.77,1.41.58,1.47-.1,1.93-21.49,3.86-43.04,3.34-64.63s-4.38-42.74-5.1-64.23c-.73-21.75,1.76-43.49,3.55-65.13s3.5-43.53,5.09-65.3c3.16-43.33,5.89-86.7,8.19-130.09,1.16-21.79,2.32-43.6,2.21-65.42s-2.35-42.36-4.11-63.59c-.91-10.93-1.47-21.92-.87-32.89.54-9.88,2.21-19.64,4.04-29.35,3.58-18.99,7.83-38.35,5.4-57.77-.62-4.94-1.71-9.79-3.21-14.53-.22-.69-1.66-.29-1.45.39h0Z"/>
          <path class="cls-4" d="m122.89,3.31c-4.14,86.94-8.28,173.87-12.42,260.81-4.11,86.34-9.33,172.72-11.28,259.15-1.09,48.48-.75,97.02,2.57,145.41.04.57,1.49.24,1.45-.39-5.94-86.64-2.24-173.52,1.86-260.15,4.1-86.45,8.23-172.9,12.34-259.35,2.31-48.54,4.62-97.09,6.93-145.63.03-.68-1.43-.43-1.46.15h0Z"/>
          <path class="cls-4" d="m131.48,3.41c1.19,44.62-3.02,89.1-6.8,133.5-3.78,44.44-6.67,88.83-4.03,133.42,1.3,22,3.19,44.05,2.17,66.1-.53,11.52-2.01,22.9-4.39,34.18-2.29,10.85-5.14,21.57-7.25,32.45-8.16,42.02-4.71,85.05-1.33,127.38,1.71,21.44,3.43,42.91,3.69,64.43.13,10.82-.11,21.64-.92,32.43s-2.48,21.91-2.92,32.92c-.21,5.4-.08,10.78.55,16.15.04.31,1.5.02,1.45-.39-1.28-11.01-.33-22.02.83-32.99s2.05-21.26,2.35-31.96c.6-21.7-.68-43.4-2.32-65.03-3.27-43.19-8.14-86.85-2.13-130.02,3.01-21.66,10.01-42.55,12.58-64.27,2.57-21.71,1.48-43.63.13-65.39-1.38-22.11-2.51-44.16-2.08-66.32.43-22.39,1.93-44.74,3.72-67.06,3.58-44.43,8.37-88.85,8.39-133.47,0-5.49-.07-10.97-.22-16.46,0-.28-1.46-.04-1.45.39h0Z"/>
        </g>
        <path class="cls-5" d="m88.16,674.97l.1-3.56c.01-.39-.14-1.31.06-1.65-.11-.32.08-.39.56-.2.32,0,.64,0,.96,0,2.39-.02,4.78-.04,7.17-.06,2.55-.02,5.1-.04,7.65-.06,1.12,0,2.23-.02,3.35-.03.62,0,1.29-.08,1.91-.01.95.1.83.25.81,1.19-.02,1.21-.05,2.42-.07,3.63-.01.52.03,1.07-.03,1.59-.1.78-.46.77-1.19,1.01-2.38.81-4.9,1.24-7.42,1.27-2.27.02-4.53-.26-6.78-.58-.94-.13-7.38-.54-7.14-1.82.12-.61-1.35-.38-1.45.16-.34,1.77,2.94,1.8,3.96,1.95,2.33.34,4.67.73,7.02.97,4.37.45,9.41.29,13.45-1.66.6-.29.9-.57,1-1.24.18-1.23.05-2.61.08-3.86.02-.81.28-2.06.04-2.83-.21-.66-.9-.67-1.49-.68-5.18-.04-10.37.08-15.55.12-1.43.01-2.87.02-4.3.03-.95,0-2.15-.18-3.05.18s-.96,1.16-.98,2.07l-.12,4.23c-.02.65,1.44.38,1.45-.16h0Z"/>
        <path class="cls-9" d="m91.06,658.53s-3.28-.9-9.49,6.1l-1.22,2.34,10.71-4.88v-3.56Z"/>
        <path class="cls-9" d="m91.06,658.53s-2.86,1.64-4.83,3.67-3.66,2.77-8.76,2.99-5.76,0-5.76,0v5.1s11.03-.22,13-1,9.5-3.56,10.94-4.88c0,0-3.08,2.21-1.32,3.6s5.03,4.54,5.03,4.54c0,0,7.38.11,8.71.36s4.32-3.07,4.77-3.13-16.63-13.47-16.63-13.47l-5.14,2.21Z"/>
        <path class="cls-2" d="m84.79,652.55s-.55,3.9,1.22,4.72,3.21-.57,4.43.18,2.47,1.53,3.56.75,2.2-1.88,2.2-1.88l-.55-1.05-3.77-2.72h-7.09Z"/>
        <path class="cls-6" d="m84.79,652.55s-4.88,0-.78-5.43,9.09,0,14.74,1.33,2.69,2.32,7.54,1.77c0,0-1.23,3.88-6.93,4.66s-5.68.33-8.3-.78-4.7-2.1-6.27-1.55Z"/>
        <path class="cls-8" d="m99.36,672.55s-13.24,2.72-12.8,5.05.67,4.74,9.64,16.83h4.32s-5.19-7.19-6.2-10.68,10.48-6.26,10.48-6.26l-5.45-4.94Z"/>
        <path class="cls-8" d="m99.36,672.55s-7.12,4.06-8.9,7.27-1.79,5.73,1.2,13.89l3.1-.23s-2.96-8.34-.76-11.39,8.76-2.84,12.86-4.38,3.69-5.76,3.69-5.76l-11.19.6Z"/>
        <path class="cls-2" d="m71.71,666.41s-5.84-.79-6.41,1.6,6.41,1.28,6.41,1.28v-2.88Z"/>
        <path class="cls-7" d="m91.66,693.72s-2.88,2.84-3.66,3.84,1.11,2.84,3.66,1.64,3.44-2.03,3.1-5.71l-3.1.23Z"/>
        <path class="cls-7" d="m97.43,694.44s-.39,2.01-1.74,3.45-.8,3.88,1.74,3.21,4.66-3.63,3.88-5.15l-.78-1.52h-3.1Z"/>
      </g>
    </g>
  </g>
</svg>