<svg width="59" height="58" viewBox="0 0 59 58" fill="none" xmlns="http://www.w3.org/2000/svg">
<path d="M4.63022 45.4987C3.39654 41.4731 3.97789 37.2322 3.45855 33.1139C3.01646 29.6121 2.20241 10.7513 5.02019 7.95912C10.0456 2.97898 47.3984 0.225814 52.6655 7.18531C56.4905 12.2384 55.7897 22.1469 55.7897 28.0832C55.7897 34.495 57.2903 44.3991 52.2747 49.3685C44.728 56.8471 17.5295 56.1436 7.3635 53.6257" stroke="#717ADD" stroke-width="5" stroke-linecap="round" stroke-linejoin="round"/>
<path d="M3.31567 23.9304C7.13936 22.6009 18.0454 24.7446 18.469 23.8521C19.537 21.6014 22.2772 16.9073 28.9869 15.6182C33.6978 14.713 40.7124 15.6182 42.9711 20.2289C54.0607 42.8665 30.6167 49.5307 23.9221 45.9348C17.9996 42.7537 18.469 38.4472 18.469 35.0803" stroke="#717ADD" stroke-width="5" stroke-linecap="round" stroke-linejoin="round"/>
<path d="M27.1639 25.6976C28.4258 24.3105 31.0184 22.4562 33.0314 22.9594C39.3758 24.5454 39.2696 36.8903 32.6399 38.2169C26.4144 39.4617 21.7215 30.3752 27.1639 27.6535" stroke="#717ADD" stroke-width="5" stroke-linecap="round" stroke-linejoin="round"/>
<path d="M46.8518 23.8215C48.4911 23.5949 53.7716 23.7887 55.3698 23.5061" stroke="#717ADD" stroke-width="5" stroke-linecap="round" stroke-linejoin="round"/>
<path d="M48.9021 14.4092C48.9021 14.2692 48.9021 14.1301 48.9021 13.99" stroke="#717ADD" stroke-width="5" stroke-linecap="round" stroke-linejoin="round"/>
</svg>
