<svg width="59" height="58" viewBox="0 0 59 58" fill="none" xmlns="http://www.w3.org/2000/svg">
<path d="M4.33342 46.6224C4.29036 41.4302 1.6755 9.23691 3.88723 5.63124C4.8991 3.98138 50.8014 0.695074 53.8515 5.53002C56.9015 10.3648 56.9015 52.0362 52.5721 53.7222C46.1209 56.2343 17.5253 54.381 8.76988 53.7222" stroke="#717ADD" stroke-width="5" stroke-linecap="round" stroke-linejoin="round"/>
<path d="M17 42C19.25 36.0032 17 30.0074 17 24" stroke="#717ADD" stroke-width="5" stroke-linecap="round" stroke-linejoin="round"/>
<path d="M17 17C17 16.2367 17 16.634 17 16" stroke="#717ADD" stroke-width="5" stroke-linecap="round" stroke-linejoin="round"/>
<path d="M27 24C27 29.9677 27 36.0039 27 42" stroke="#717ADD" stroke-width="5" stroke-linecap="round" stroke-linejoin="round"/>
<path d="M27 28.6878C27 26.1787 30.2624 24.1508 32.1156 23.7043C44.0033 20.8408 43.287 26.7286 42.7619 41" stroke="#717ADD" stroke-width="5" stroke-linecap="round" stroke-linejoin="round"/>
</svg>
